<svg xmlns="http://www.w3.org/2000/svg" width="15.809" height="14" viewBox="0 0 15.809 14">
  <g id="e" transform="translate(1.517 1.239)">
    <path id="Path_2987" data-name="Path 2987" d="M-14899.148,5123.626a.436.436,0,0,1,.158-.6l3.016-1.74a.437.437,0,0,1,.6.159.436.436,0,0,1-.158.6l-3.016,1.74a.432.432,0,0,1-.219.058A.435.435,0,0,1-14899.148,5123.626Z" transform="translate(14906.466 -5118.538)" fill="#18a3ad"/>
    <path id="Path_2985" data-name="Path 2985" d="M-14898.559,5124.176a1.693,1.693,0,0,1-.675-2.294,1.687,1.687,0,0,1,1.485-.88,1.7,1.7,0,0,1,.808.205.171.171,0,0,1,.088.149.168.168,0,0,1-.084.152l-.609.351a.188.188,0,0,1-.107.024.547.547,0,0,0-.095-.008.826.826,0,0,0-.589.249.823.823,0,0,0,.013,1.16.817.817,0,0,0,.576.233.815.815,0,0,0,.587-.246.821.821,0,0,0,0-1.15.172.172,0,0,1-.062-.13.172.172,0,0,1,.1-.159l.455-.263a.175.175,0,0,1,.219.039,1.68,1.68,0,0,1,.185,1.894,1.687,1.687,0,0,1-1.482.88A1.72,1.72,0,0,1-14898.559,5124.176Z" transform="translate(14904.127 -5117.061)" fill="#18a3ad"/>
    <path id="Path_2984" data-name="Path 2984" d="M-14885.168,5133.394a.173.173,0,0,1-.123-.164v-1.194a.151.151,0,0,1,.018-.074,7.031,7.031,0,0,0,.7-3.051,7.034,7.034,0,0,0-.7-3.051,6.953,6.953,0,0,0-2.618-2.887,6.984,6.984,0,0,0-3.652-1.032,6.9,6.9,0,0,0-3.043.7,6.911,6.911,0,0,0-3.536,3.991,6.923,6.923,0,0,0,.32,5.322.158.158,0,0,1,.018.075v1.191a.169.169,0,0,1-.119.164.167.167,0,0,1-.192-.066,7.863,7.863,0,0,1-1.34-4.143,7.881,7.881,0,0,1,1.052-4.224,7.845,7.845,0,0,1,2.954-2.926,7.939,7.939,0,0,1,3.9-1.026,7.912,7.912,0,0,1,3.942,1.057.145.145,0,0,0,.018.013,7.866,7.866,0,0,1,3.662,4.792,7.86,7.86,0,0,1-.787,6c-.09.157-.186.308-.285.462a.177.177,0,0,1-.146.076A.193.193,0,0,1-14885.168,5133.394Z" transform="translate(14897.922 -5122.24)" fill="#18a3ad"/>
    <path id="Path_2983" data-name="Path 2983" d="M-14898.466,5125.34a.977.977,0,0,1-.976-.975v-2.392a.974.974,0,0,1,.974-.972h1.291a.977.977,0,0,1,.975.972v2.392a.978.978,0,0,1-.975.975Zm-.1-3.367v2.392a.1.1,0,0,0,.1.1h1.291a.1.1,0,0,0,.1-.1v-2.392a.1.1,0,0,0-.1-.1h-1.306A.1.1,0,0,0-14898.568,5121.973Z" transform="translate(14900.115 -5112.579)" fill="#18a3ad"/>
    <path id="Path_2982" data-name="Path 2982" d="M-14898.468,5125.34a.977.977,0,0,1-.974-.975v-2.392a.974.974,0,0,1,.974-.972h1.289a.974.974,0,0,1,.975.972v2.392a.977.977,0,0,1-.975.975Zm-.1-3.367v2.392a.1.1,0,0,0,.1.1h1.289a.1.1,0,0,0,.1-.1v-2.392a.1.1,0,0,0-.1-.1h-1.289A.1.1,0,0,0-14898.568,5121.973Z" transform="translate(14904.208 -5112.579)" fill="#18a3ad"/>
    <path id="Path_2981" data-name="Path 2981" d="M-14898.466,5125.34a.982.982,0,0,1-.976-.975v-2.392a.976.976,0,0,1,.976-.972h1.289a.974.974,0,0,1,.973.972v2.392a.976.976,0,0,1-.973.975Zm-.1-3.367v2.392a.1.1,0,0,0,.1.1h1.289a.1.1,0,0,0,.1-.1v-2.392a.1.1,0,0,0-.1-.1h-1.289A.1.1,0,0,0-14898.568,5121.973Z" transform="translate(14908.299 -5112.579)" fill="#18a3ad"/>
  </g>
</svg>
