<svg xmlns="http://www.w3.org/2000/svg" width="10.068" height="14" viewBox="0 0 10.068 14">
  <g id="Group_5171" data-name="Group 5171" transform="translate(0.082 0.302)">
    <path id="Path_3639" data-name="Path 3639" d="M19632.008-706.349a2.7,2.7,0,0,1-.8-1.912,2.7,2.7,0,0,1,.8-1.912,2.707,2.707,0,0,1,1.918-.791,2.7,2.7,0,0,1,1.91.791,2.7,2.7,0,0,1,.793,1.912,2.7,2.7,0,0,1-.793,1.912,2.7,2.7,0,0,1-1.91.791A2.707,2.707,0,0,1,19632.008-706.349Zm.242-1.912a1.673,1.673,0,0,0,1.676,1.667,1.67,1.67,0,0,0,1.664-1.667,1.668,1.668,0,0,0-1.664-1.667A1.67,1.67,0,0,0,19632.25-708.262Z" transform="translate(-19628.971 712.881)" fill="#18a3ad"/>
    <path id="Path_3638" data-name="Path 3638" d="M19635.561-697.351l-3.631-5.9a5.1,5.1,0,0,1-.713-2.615,5.228,5.228,0,0,1,.391-1.981,5.126,5.126,0,0,1,1.08-1.619,5.117,5.117,0,0,1,1.6-1.1,5,5,0,0,1,1.965-.4,4.981,4.981,0,0,1,1.963.4,5,5,0,0,1,1.594,1.1,5,5,0,0,1,1.082,1.619,5.125,5.125,0,0,1,.4,1.981,5.158,5.158,0,0,1-.65,2.5l-.01.01-1.182,2a.542.542,0,0,1-.463.265.565.565,0,0,1-.277-.076.558.558,0,0,1-.25-.331.575.575,0,0,1,.061-.41l1.182-1.995a4.058,4.058,0,0,0,.508-1.97,4.047,4.047,0,0,0-.316-1.564,3.992,3.992,0,0,0-.844-1.278,3.9,3.9,0,0,0-2.795-1.175,3.9,3.9,0,0,0-2.795,1.175,4.063,4.063,0,0,0-.846,1.278,4.15,4.15,0,0,0-.309,1.564,4.071,4.071,0,0,0,.557,2.06l3.393,5.512.822-1.33a.529.529,0,0,1,.459-.258.53.53,0,0,1,.279.079.552.552,0,0,1,.246.338.552.552,0,0,1-.066.406l-1.055,1.712a.786.786,0,0,1-.686.382A.792.792,0,0,1,19635.561-697.351Z" transform="translate(-19631.299 710.667)" fill="#18a3ad"/>
  </g>
</svg>
