<svg xmlns="http://www.w3.org/2000/svg" width="10.613" height="13.999" viewBox="0 0 10.613 13.999">
  <path id="Lock" d="M-5310.33,3487.3h-8.127a1.244,1.244,0,0,1-1.242-1.243v-6.772a1.244,1.244,0,0,1,1.242-1.243h.789v-1.466a3.28,3.28,0,0,1,3.276-3.275,3.278,3.278,0,0,1,3.273,3.275v1.466h.789a1.245,1.245,0,0,1,1.244,1.243v6.772A1.245,1.245,0,0,1-5310.33,3487.3Zm-8.238-8.126v6.994h8.349v-6.994Zm4.176-4.809a2.215,2.215,0,0,0-2.212,2.211v1.466h4.421v-1.466A2.213,2.213,0,0,0-5314.392,3474.364Zm0,9.549a1.245,1.245,0,0,1-1.244-1.243,1.245,1.245,0,0,1,1.244-1.243,1.244,1.244,0,0,1,1.241,1.243A1.243,1.243,0,0,1-5314.392,3483.913Z" transform="translate(5319.699 -3473.3)" fill="#00a3ad"/>
</svg>
